<?xml version="1.0" standalone="no"?><!DOCTYPE svg PUBLIC "-//W3C//DTD SVG 1.1//EN" "http://www.w3.org/Graphics/SVG/1.1/DTD/svg11.dtd"><svg t="1556264272288" class="icon" style="" viewBox="0 0 1024 1024" version="1.1" xmlns="http://www.w3.org/2000/svg" p-id="1967" xmlns:xlink="http://www.w3.org/1999/xlink" width="200" height="200"><defs><style type="text/css"></style></defs><path d="M688.8 504.571429l-281.142857-203.428572A9.142857 9.142857 0 0 0 393.142857 308.571429v53.6c0 11.657143 5.6 22.742857 15.085714 29.6L574.4 512 408.228571 632.228571c-9.485714 6.857143-15.085714 17.828571-15.085714 29.6V715.428571c0 7.428571 8.457143 11.771429 14.514286 7.428572l281.142857-203.428572c5.028571-3.657143 5.028571-11.2 0-14.857142z" p-id="1968"></path><path d="M512 0C229.257143 0 0 229.257143 0 512s229.257143 512 512 512 512-229.257143 512-512S794.742857 0 512 0z m0 937.142857c-234.742857 0-425.142857-190.4-425.142857-425.142857s190.4-425.142857 425.142857-425.142857 425.142857 190.4 425.142857 425.142857-190.4 425.142857-425.142857 425.142857z" p-id="1969"></path></svg>