<?xml version="1.0" standalone="no"?><!DOCTYPE svg PUBLIC "-//W3C//DTD SVG 1.1//EN" "http://www.w3.org/Graphics/SVG/1.1/DTD/svg11.dtd"><svg t="1556278459555" class="icon" style="" viewBox="0 0 1024 1024" version="1.1" xmlns="http://www.w3.org/2000/svg" p-id="5782" xmlns:xlink="http://www.w3.org/1999/xlink" width="200" height="200"><defs><style type="text/css"></style></defs><path d="M510.4 20.8C238.4 20.8 16 241.6 16 513.6S238.4 1008 510.4 1008s494.4-222.4 494.4-494.4S782.4 20.8 510.4 20.8zM510.4 976C256 976 48 768 48 513.6S256 52.8 510.4 52.8s462.4 208 462.4 462.4S764.8 976 510.4 976z" p-id="5783" fill="#2c2c2c"></path><path d="M651.2 385.6c9.6 0 17.6 0 27.2 1.6-24-113.6-145.6-198.4-284.8-198.4-155.2 0-281.6 105.6-281.6 240 0 76.8 41.6 140.8 113.6 190.4L196.8 704l99.2-49.6c35.2 6.4 64 14.4 99.2 14.4 9.6 0 17.6 0 25.6-1.6-4.8-19.2-8-38.4-8-59.2C411.2 486.4 516.8 385.6 651.2 385.6zM499.2 308.8c20.8 0 35.2 14.4 35.2 35.2 0 20.8-14.4 35.2-35.2 35.2-20.8 0-41.6-14.4-41.6-35.2C457.6 323.2 478.4 308.8 499.2 308.8zM302.4 379.2c-20.8 0-43.2-14.4-43.2-35.2 0-20.8 20.8-35.2 43.2-35.2s35.2 14.4 35.2 35.2C337.6 364.8 323.2 379.2 302.4 379.2z" p-id="5784" fill="#2c2c2c"></path><path d="M668.8 401.6c-134.4 0-240 91.2-240 204.8 0 113.6 105.6 204.8 240 204.8 28.8 0 56-6.4 84.8-14.4l76.8 41.6L809.6 768c56-43.2 99.2-99.2 99.2-163.2C908.8 492.8 795.2 401.6 668.8 401.6zM590.4 571.2c-14.4 0-28.8-14.4-28.8-28.8 0-14.4 14.4-28.8 28.8-28.8 20.8 0 35.2 14.4 35.2 28.8C627.2 556.8 612.8 571.2 590.4 571.2zM747.2 571.2c-14.4 0-28.8-14.4-28.8-28.8 0-14.4 14.4-28.8 28.8-28.8 20.8 0 35.2 14.4 35.2 28.8C782.4 556.8 768 571.2 747.2 571.2z" p-id="5785" fill="#2c2c2c"></path></svg>